# xmcd
#
# Track frame offsets:
#	152
#	13952
#	26997
#	38137
#	51822
#	71303
#	82762
#	92798
#	104149
#	116168
#	125013
#	140636
#	151558
#	159163
#	170114
#	179556
#	189664
#	198012
#	207570
#	218228
#
# Disc length: 3120
#
# Revision: 1
# Processed by: cddbd v1.5.1PL0 Copyright (c) Steve Scherf et al.
# Submitted via: CDex 1.50Beta3
# Normalized: r0:TDELIM( - )
#
DISCID=230c2e14
DTITLE=Masters Of Classic Jazz - The Piano [CD1]
DYEAR=1900
DGENRE=Jazz
TTITLE0=Art Tatum - Deep purple
TTITLE1=Herman chittison - As time goes by
TTITLE2=Jess Stacy - Blue notion
TTITLE3=Art Hodes - Sweet Sue
TTITLE4=Mary Lou Williams - Mary Lou Williams medley
TTITLE5=Art Tatum - I would do anything for you
TTITLE6=Jess Stacy - Oh, lady be good
TTITLE7=Art Hodes - The professor in mind
TTITLE8=Mary Lou Williams - 8th Avenue express
TTITLE9=Art Tatum - Liza
TTITLE10=Herman Chittison - My old flame
TTITLE11=Jess Stacy - Sweet Georgia Brown
TTITLE12=Art Hodes - Ugly Chile
TTITLE13=Mary Lou Williams - Froggy bottom
TTITLE14=Art Tatum - Tea for two
TTITLE15=Jess Stacy - After you've gone
TTITLE16=Art Hodes - I wish I could shimmy like my sister Kate
TTITLE17=Mary Lou Williams - Yankee Doodle blues
TTITLE18=Art Tatum - Honeysuckle rose
TTITLE19=Herman Chittison - Lover
EXTD=
EXTT0=
EXTT1=
EXTT2=
EXTT3=
EXTT4=
EXTT5=
EXTT6=
EXTT7=
EXTT8=
EXTT9=
EXTT10=
EXTT11=
EXTT12=
EXTT13=
EXTT14=
EXTT15=
EXTT16=
EXTT17=
EXTT18=
EXTT19=
PLAYORDER=
